<svg id="Layer_1" data-name="Layer 1" xmlns="http://www.w3.org/2000/svg" viewBox="0 0 551.2 548.37"><defs><style>.cls-1{fill:#9a4993;}.cls-2{fill:#6a1577;}.cls-3{fill:#813084;}.cls-4,.cls-8{fill:#fff;}.cls-5{fill:#3949ab;}.cls-5,.cls-6,.cls-7,.cls-8{fill-rule:evenodd;}.cls-6{fill:#283593;}.cls-7{fill:#5c6bc0;}.cls-9{fill:#00599c;}.cls-10{fill:#004482;}.cls-11{fill:#659ad2;}</style></defs><path class="cls-1" d="M555.6,335.74a26.7,26.7,0,0,0-3.39-13.7,25.78,25.78,0,0,0-9.89-9.64q-54.83-31.61-109.72-63.19c-9.89-5.67-19.37-5.5-29.18.25C388.87,258,316,299.79,294.3,312.4c-9,5.16-13.28,13.11-13.28,23.43V463.05a27.77,27.77,0,0,0,3.21,13.45,26.51,26.51,0,0,0,10.07,10c21.74,12.61,94.57,54.31,109.12,62.94,9.81,5.75,19.37,6,29.18.25Q487.42,518,542.32,486.48a25.34,25.34,0,0,0,10.06-10,27.66,27.66,0,0,0,3.22-13.45Z" transform="translate(-4.4 -5.81)"/><path class="cls-2" d="M418.65,399.39,284.1,476.85a26.51,26.51,0,0,0,10.07,10c21.73,12.6,94.54,54.29,109.09,62.92,9.8,5.75,19.36,6,29.17.25q54.79-31.71,109.68-63.17a25.37,25.37,0,0,0,10.07-10Z" transform="translate(-4.4 -5.81)"/><path class="cls-2" d="M378.82,422.3a45.36,45.36,0,0,0,79-.25l-39.15-22.66Z" transform="translate(-4.4 -5.81)"/><path class="cls-3" d="M555.56,336.22a26.8,26.8,0,0,0-3.38-13.7L418.65,399.39l133.7,77.46a27.77,27.77,0,0,0,3.21-13.45Z" transform="translate(-4.4 -5.81)"/><path class="cls-4" d="M457.8,422.05a45.45,45.45,0,1,1-.34-45l39.66-22.83a91.07,91.07,0,1,0,.34,90.74ZM508,378.25H498.9V422H508Zm20,0h-9V422h9Z" transform="translate(-4.4 -5.81)"/><path class="cls-4" d="M535.35,385.6H491.63v9h43.72Zm0,20H491.63v9.05h43.72Z" transform="translate(-4.4 -5.81)"/><path class="cls-5" d="M275.49,476.86A24.24,24.24,0,0,0,279,465.15V334.09a24.3,24.3,0,0,0-3.49-11.71l-133.8,77.24,133.8,77.24Z" transform="translate(-4.4 -5.81)"/><path class="cls-6" d="M153.59,551.27l113.5-65.53a24.49,24.49,0,0,0,8.4-8.88l-133.8-77.24L7.9,476.86a24.41,24.41,0,0,0,8.4,8.88l113.5,65.53c6.54,3.77,17.22,3.77,23.79,0Z" transform="translate(-4.4 -5.81)"/><path class="cls-7" d="M275.49,322.38a24.41,24.41,0,0,0-8.4-8.88L153.59,248c-6.54-3.77-17.25-3.77-23.79,0L16.3,313.5c-6.54,3.77-11.9,13.05-11.9,20.59V465.15a24.21,24.21,0,0,0,3.5,11.71l133.79-77.24,133.8-77.24Z" transform="translate(-4.4 -5.81)"/><path class="cls-8" d="M141.69,491.15A91.53,91.53,0,1,1,221,353.83l-39.6,22.93a45.77,45.77,0,1,0,0,45.77L221,445.46a91.92,91.92,0,0,1-79.26,45.69Z" transform="translate(-4.4 -5.81)"/><path class="cls-9" d="M414,237.56a24.42,24.42,0,0,0,3.49-11.72V94.77A24.27,24.27,0,0,0,414,83.06l-133.8,77.25Z" transform="translate(-4.4 -5.81)"/><path class="cls-10" d="M292.12,312l113.51-65.53a24.33,24.33,0,0,0,8.4-8.88l-133.8-77.25L146.44,237.56a24.3,24.3,0,0,0,8.39,8.88L268.34,312C274.88,315.75,285.58,315.75,292.12,312Z" transform="translate(-4.4 -5.81)"/><path class="cls-11" d="M414,83.06a24.33,24.33,0,0,0-8.4-8.88L292.12,8.64c-6.54-3.77-17.24-3.77-23.78,0L154.83,74.18c-6.54,3.77-11.89,13-11.89,20.59V225.84a24.32,24.32,0,0,0,3.5,11.72l133.79-77.25Z" transform="translate(-4.4 -5.81)"/><path class="cls-4" d="M280.23,251.84a91.53,91.53,0,1,1,79.26-137.32l-39.61,22.92a45.75,45.75,0,1,0,0,45.74L359.5,206.1A91.88,91.88,0,0,1,280.23,251.84Z" transform="translate(-4.4 -5.81)"/><polygon class="cls-4" points="367.36 149.41 357.19 149.41 357.19 139.24 347.02 139.24 347.02 149.41 336.85 149.41 336.85 159.58 347.02 159.58 347.02 169.75 357.19 169.75 357.19 159.58 367.36 159.58 367.36 149.41"/><polygon class="cls-4" points="405.49 149.41 395.32 149.41 395.32 139.24 385.15 139.24 385.15 149.41 374.99 149.41 374.99 159.58 385.15 159.58 385.15 169.75 395.32 169.75 395.32 159.58 405.49 159.58 405.49 149.41"/></svg>