<svg width="1201" height="391" viewBox="0 0 1201 391" fill="none" xmlns="http://www.w3.org/2000/svg">
<path d="M223.847 305H167.304V187.391H57.0449V305H0.501953V30.5781H57.0449V141.779H167.304V30.5781H223.847V305ZM363.696 308.77C333.791 308.77 309.415 299.597 290.567 281.252C271.845 262.907 262.484 238.468 262.484 207.935V202.657C262.484 182.176 266.442 163.894 274.358 147.811C282.274 131.602 293.457 119.162 307.907 110.492C322.483 101.697 339.069 97.2988 357.665 97.2988C385.56 97.2988 407.486 106.094 423.443 123.686C439.527 141.277 447.568 166.218 447.568 198.511V220.751H317.708C319.467 234.07 324.744 244.75 333.54 252.792C342.461 260.834 353.707 264.854 367.277 264.854C388.261 264.854 404.659 257.253 416.47 242.049L443.233 272.017C435.066 283.576 424.009 292.623 410.062 299.157C396.114 305.565 380.659 308.77 363.696 308.77ZM357.477 141.402C346.671 141.402 337.875 145.046 331.09 152.334C324.43 159.622 320.158 170.051 318.273 183.621H394.041V179.286C393.79 167.224 390.523 157.925 384.24 151.392C377.958 144.732 369.036 141.402 357.477 141.402ZM536.152 305H481.494V15.5H536.152V305ZM638.684 305H584.025V15.5H638.684V305ZM675.248 201.149C675.248 180.92 679.143 162.889 686.934 147.057C694.724 131.225 705.907 118.974 720.482 110.304C735.184 101.634 752.209 97.2988 771.56 97.2988C799.077 97.2988 821.506 105.717 838.846 122.555C856.311 139.392 866.049 162.26 868.06 191.16L868.437 205.107C868.437 236.395 859.704 261.525 842.238 280.498C824.773 299.346 801.339 308.77 771.937 308.77C742.534 308.77 719.037 299.346 701.446 280.498C683.981 261.65 675.248 236.018 675.248 203.6V201.149ZM729.718 205.107C729.718 224.458 733.362 239.285 740.649 249.588C747.937 259.766 758.366 264.854 771.937 264.854C785.13 264.854 795.433 259.828 802.847 249.776C810.26 239.599 813.967 223.39 813.967 201.149C813.967 182.176 810.26 167.475 802.847 157.046C795.433 146.617 785.004 141.402 771.56 141.402C758.241 141.402 747.937 146.617 740.649 157.046C733.362 167.349 729.718 183.37 729.718 205.107ZM1000.75 278.236C1000.75 269.566 1003.64 262.53 1009.42 257.127C1015.32 251.724 1022.67 249.022 1031.47 249.022C1040.39 249.022 1047.74 251.724 1053.52 257.127C1059.43 262.53 1062.38 269.566 1062.38 278.236C1062.38 286.781 1059.49 293.754 1053.71 299.157C1047.93 304.435 1040.52 307.073 1031.47 307.073C1022.55 307.073 1015.2 304.435 1009.42 299.157C1003.64 293.754 1000.75 286.781 1000.75 278.236ZM1000.75 123.874C1000.75 115.204 1003.64 108.168 1009.42 102.765C1015.32 97.3617 1022.67 94.6602 1031.47 94.6602C1040.39 94.6602 1047.74 97.3617 1053.52 102.765C1059.43 108.168 1062.38 115.204 1062.38 123.874C1062.38 132.418 1059.49 139.392 1053.71 144.795C1047.93 150.072 1040.52 152.711 1031.47 152.711C1022.55 152.711 1015.2 150.072 1009.42 144.795C1003.64 139.392 1000.75 132.418 1000.75 123.874ZM1200.91 197.757C1200.91 226.154 1196.83 253.483 1188.66 279.744C1180.49 306.005 1168.74 329.188 1153.41 349.292C1138.08 369.396 1121.69 383.218 1104.22 390.757L1093.67 361.92C1111.51 348.475 1125.58 327.743 1135.88 299.723C1146.19 271.702 1151.53 239.473 1151.91 203.034V193.045C1151.91 155.475 1146.75 122.366 1136.45 93.7178C1126.27 65.0693 1112.01 43.583 1093.67 29.2588L1104.22 0.421875C1121.31 7.83529 1137.39 21.2799 1152.47 40.7559C1167.67 60.2318 1179.42 82.9118 1187.72 108.796C1196.13 134.68 1200.53 161.507 1200.91 189.275V197.757Z" fill="white"/>
</svg>
