<svg id="Layer_1" data-name="Layer 1" xmlns="http://www.w3.org/2000/svg" viewBox="0 0 451.21 314.73"><defs><style>.cls-1{fill:#e44d26;}.cls-2{fill:#f16529;}.cls-3{fill:#ebebeb;}.cls-4{fill:#fff;}.cls-5{fill:#264de4;}.cls-6{fill:#2965f1;}</style></defs><path d="M75.14,122.64H89.25v14h13v-14h14.11V165H102.26V150.86H89.37V165H75.14M135,136.75H122.57V122.64h39.08v14.11H149.13V165H135m32.83-42.33h14.78l9.09,14.91,9.08-14.91h14.78V165H201.47V144l-9.88,15.22L181.71,144v21H167.85m54.73-42.33h14.11V151h20v14H222.58" transform="translate(-54.4 -122.64)"/><path class="cls-1" d="M74.64,411.63,54.4,184.36H277L256.76,411.51l-91.24,25.28" transform="translate(-54.4 -122.64)"/><path class="cls-2" d="M165.7,417.46V203h91L239.33,396.91" transform="translate(-54.4 -122.64)"/><path class="cls-3" d="M95.75,230.81H165.7v27.86H126.31l2.58,28.53H165.7V315H103.36m1.23,14h28l2,22.28,31.17,8.34v29.09l-57.19-16" transform="translate(-54.4 -122.64)"/><path class="cls-4" d="M235.4,230.81H165.58v27.86h67.25m-2.52,28.53H165.58v27.86h34.36l-3.25,36.2-31.11,8.34v29l57.06-15.83" transform="translate(-54.4 -122.64)"/><g id="layer1"><g id="g3013"><polygon id="polygon2989" class="cls-5" points="451.21 62.26 430.93 289.45 339.77 314.73 248.86 289.49 228.6 62.26 451.21 62.26"/><polygon id="polygon2991" class="cls-6" points="413.56 274.99 430.9 80.84 339.9 80.84 339.9 295.41 413.56 274.99"/><polygon id="polygon2993" class="cls-3" points="275.04 165.12 277.54 192.99 339.9 192.99 339.9 165.12 275.04 165.12"/><polygon id="polygon2995" class="cls-3" points="339.9 108.71 339.81 108.71 270.02 108.71 272.56 136.58 339.9 136.58 339.9 108.71"/><polygon id="polygon2997" class="cls-3" points="339.9 266.49 339.9 237.49 339.78 237.53 308.75 229.15 306.76 206.92 291.68 206.92 278.79 206.92 282.69 250.68 339.78 266.52 339.9 266.49"/><path id="path2999" d="M335.39,123.15h33.75v14.12H349.5v14.11h19.64V165.5H335.39Z" transform="translate(-54.4 -122.64)"/><path id="path3001" d="M375.89,123.15h33.75v12.28H390v2.45h19.64v28.23H375.89V153.22h19.64v-2.45H375.89Z" transform="translate(-54.4 -122.64)"/><path id="path3003" d="M416.39,123.15h33.76v12.28H430.51v2.45h19.64v28.23H416.39V153.22H436v-2.45H416.39Z" transform="translate(-54.4 -122.64)"/><polygon id="polygon3005" class="cls-4" points="374.12 192.99 370.89 229.13 339.81 237.52 339.81 266.51 396.94 250.68 397.36 245.97 403.91 172.6 404.59 165.12 409.62 108.71 339.81 108.71 339.81 136.58 379.08 136.58 376.54 165.12 339.81 165.12 339.81 192.99 374.12 192.99"/></g></g></svg>