<svg id="Capa_1" data-name="Capa 1" xmlns="http://www.w3.org/2000/svg" viewBox="0 0 873.52 851.35"><defs><style>.cls-1{fill:#25d2fd;}.cls-2{fill:#032831;}.cls-3{fill:#e0f7ff;}</style></defs><path class="cls-1" d="M976.35,262.35c-.25-83-70.09-151.29-153.14-151.33q-282.39-.15-564.78,0a123.84,123.84,0,0,0-17.87.93c-83,12.09-137.11,74.44-137.21,158.9q-.3,265-.07,529.94c0,12,.61,23.89,3,35.64,15.35,75.09,77.26,125.74,153.94,125.8q140.08.12,280.15,0H818.29l4.48,0c83.91-.5,153.37-68.46,153.61-152.08Q977.13,536.28,976.35,262.35ZM939.77,792.92c0,76.9-56,132.72-132.92,132.8q-133.87.15-267.76,0v-.07q-132.2,0-264.4,0c-78,0-133.68-53.37-134.31-131.31-1-121-.37-241.94-.4-362.92,0-49.66,1-99.33-.12-149-1.73-78.55,61-136.22,137.88-135.56,177.38,1.53,354.78.39,532.17.59,63.28.07,115.24,42.86,127.64,104.57a120.16,120.16,0,0,1,2.2,23.34Q939.92,534.17,939.77,792.92Z" transform="translate(-103.24 -110.97)"/><path class="cls-2" d="M539.09,925.68q-132.2,0-264.4,0c-78,0-133.68-53.37-134.31-131.31-1-121-.37-241.94-.4-362.92,0-49.66,1-99.33-.12-149-1.73-78.55,61-136.22,137.88-135.56,177.38,1.53,354.78.4,532.17.59,63.28.07,115.24,42.86,127.64,104.57a120.16,120.16,0,0,1,2.2,23.34q.16,258.75,0,517.5c0,76.9-56,132.72-132.92,132.8q-133.87.15-267.76,0Z" transform="translate(-103.24 -110.97)"/><path class="cls-3" d="M591.73,662.74q0-8.24.1-16.47c0-6.51-1-16.74,8.51-11a129,129,0,0,0,71.42,19,67.25,67.25,0,0,0,17.61-2.52c22.34-6.8,27.82-28.81,11.36-45.29-11.78-11.79-26.66-19-41.26-26.43a241,241,0,0,1-29.8-17.62c-28.9-20.32-42-48.13-37-83.05,5.26-36.76,28.11-59.46,62.93-69.37,32-9.12,64.19-6.32,96,2.82,10.6,3,9.84,11.15,9.85,20.5V470a8.49,8.49,0,0,1-.68,4.1c-1.89,3.54-6.71,1.14-9.21-.15-18.58-9.61-38.59-13.46-59.39-13.5a65.88,65.88,0,0,0-11.13.9c-12.48,2.15-23.28,7.15-26.4,20.69-3.05,13.24,4.7,21.83,14.65,29,14.61,10.47,31.11,17.57,46.69,26.3,17,9.55,33.14,20.43,44.38,36.85,31.82,46.47,9.53,111.78-44.86,129.79-37.52,12.42-75,9-111.92-3.94-10.8-3.79-12-12.19-11.92-22.57Q591.67,670.07,591.73,662.74Z" transform="translate(-103.24 -110.97)"/><path class="cls-3" d="M443.56,305.63c-38.45-3.5-76.82-.59-115.24-.09-10.71.14-14.05,3.43-14,14.18.44,62.33.21,124.67.21,187,0,62.7.15,125.41-.18,188.11,0,9.32,4.13,10.48,12.38,10.31,11.57-.24,23.17,0,34.74,0,10.33,0,18.13,1.33,18-11.21-.54-41.06-.05-82.12-.37-123.17-.06-7.4,2-9.66,9.47-9.3a325.84,325.84,0,0,0,38,0c66.77-4.6,125.71-40.28,130.26-123.33C560.92,364,517.65,312.36,443.56,305.63ZM419.72,503.3c-10.8.47-21.64-.15-32.44.27-6.35.24-8.26-2-8.16-8.33.35-20.88.13-41.77.13-62.65q0-30.76,0-61.53c0-4.24-.3-8.26,5.91-8.46,20.11-.63,40.26-2.23,60,3.47,23.5,6.78,38.31,21.76,43.85,45.86C500.85,463.49,472.57,501,419.72,503.3Z" transform="translate(-103.24 -110.97)"/></svg>